<?xml version="1.0" encoding="utf-8"?>
<!-- Generator: Adobe Illustrator 23.0.2, SVG Export Plug-In . SVG Version: 6.00 Build 0)  -->
<svg version="1.0" id="Tata_and_TCS_Marks_-_Stacked_with_Tagline_x5F_Black_and_white_xA0_Image_1_"
	 xmlns="http://www.w3.org/2000/svg" xmlns:xlink="http://www.w3.org/1999/xlink" x="0px" y="0px" viewBox="0 0 258 98"
	 style="enable-background:new 0 0 258 98;" xml:space="preserve">
<style type="text/css">
	.st0{fill-rule:evenodd;clip-rule:evenodd;fill:#FFFFFF;}
</style>
<path class="st0" d="M123.8,87.1c0.7,0,1.1,0.2,1.4,0.3l0.3-0.9c-0.3-0.2-1-0.4-1.7-0.4c-2.2,0-3.6,1.5-3.6,3.6
	c0,2.1,1.3,3.4,3.4,3.4c0.9,0,1.6-0.2,1.9-0.4l-0.2-0.9c-0.3,0.2-0.8,0.3-1.5,0.3c-1.3,0-2.3-1-2.3-2.5
	C121.4,88.3,122.2,87.1,123.8,87.1z M139.9,87.1c0.7,0,1.1,0.2,1.4,0.3l0.3-0.9c-0.3-0.2-1-0.4-1.7-0.4c-2.2,0-3.6,1.5-3.6,3.6
	c0,2.1,1.3,3.4,3.4,3.4c0.9,0,1.6-0.2,1.9-0.4l-0.2-0.9c-0.3,0.2-0.8,0.3-1.5,0.3c-1.3,0-2.3-1-2.3-2.5
	C137.5,88.3,138.4,87.1,139.9,87.1z M129.5,86.2h-0.2c-1.8,0.1-3,1.7-3,3.6c0,1.9,1.1,3.3,3,3.4h0.3c1.1,0,1.8-0.2,2.3-0.4l-0.2-0.9
	c-0.5,0.2-1,0.4-1.9,0.4c-0.2,0-0.3,0-0.5-0.1c-1-0.2-1.8-0.9-1.8-2.3h4.7c0-0.2,0-0.3,0-0.6C132.3,88.1,131.7,86.2,129.5,86.2z
	 M131.1,89h-3.5c0.1-0.8,0.6-1.9,1.8-2c0,0,0.1,0,0.1,0C130.8,87,131.1,88.3,131.1,89z M116.3,86.2c-1.1,0-1.9,0.6-2.2,1.3h0
	l-0.1-1.1h-1.1c0,0.5,0.1,1.1,0.1,1.8v4.9h1.2V89c0-0.2,0-0.4,0.1-0.6c0.2-0.7,0.9-1.3,1.6-1.3c1.2,0,1.6,0.9,1.6,2v3.9h1.2v-4
	C118.6,86.7,117.2,86.2,116.3,86.2z M81.7,86.3h-1.3l-0.9,1.4c-0.2,0.4-0.5,0.7-0.7,1.1h0c-0.2-0.4-0.4-0.7-0.7-1.1l-1-1.4h-1.4
	l2.3,3.3l-2.4,3.4h1.4l1-1.5c0.3-0.4,0.5-0.8,0.7-1.2h0c0.2,0.4,0.5,0.8,0.7,1.2l1,1.5h1.4l-2.4-3.5L81.7,86.3z M93.6,86.2h-0.2
	c-1.8,0.1-3,1.7-3,3.6c0,1.9,1.1,3.3,3,3.4h0.3c1.1,0,1.8-0.2,2.3-0.4l-0.2-0.9c-0.4,0.2-1,0.4-1.9,0.4c-0.2,0-0.3,0-0.5-0.1
	c-1-0.2-1.8-0.9-1.8-2.3h4.8c0-0.2,0-0.3,0-0.6C96.4,88.1,95.8,86.2,93.6,86.2z M91.7,89c0.1-0.8,0.6-1.9,1.8-2c0,0,0.1,0,0.1,0
	c1.4,0,1.7,1.2,1.7,2H91.7z M86.5,86.2c-0.1,0-0.2,0-0.3,0c-0.9,0.1-1.6,0.5-2.1,1.3L84,86.3h-1.1c0,0.6,0,1.3,0,2.2v7.3h1.2v-3.7h0
	c0.4,0.6,1.1,1,1.9,1.1h0.1c1.6,0,3.1-1.2,3.1-3.6C89.4,87.6,88.1,86.2,86.5,86.2z M86.2,92.3h-0.1c-0.8,0-1.6-0.6-1.8-1.4
	c-0.1-0.2-0.1-0.3-0.1-0.5v-1.2c0-0.2,0-0.3,0.1-0.5c0.2-0.9,1-1.5,1.9-1.5h0c1.3,0,2,1.2,2,2.5C88.1,91.2,87.4,92.3,86.2,92.3z
	 M108.6,86.2h-0.2c-1.8,0.1-3,1.7-3,3.6c0,1.9,1.1,3.3,3,3.4h0.3c1.1,0,1.8-0.2,2.3-0.4l-0.2-0.9c-0.4,0.2-1,0.4-1.9,0.4
	c-0.2,0-0.3,0-0.5-0.1c-1-0.2-1.8-0.9-1.8-2.3h4.8c0-0.2,0-0.3,0-0.6C111.3,88.1,110.8,86.2,108.6,86.2z M106.5,89
	c0.1-0.8,0.6-1.9,1.8-2c0,0,0.1,0,0.1,0c1.4,0,1.7,1.2,1.7,2H106.5z M70.8,88.7h3.7v-1h-3.7v-3h3.9v-1h-5.1v9.4h5.3v-1h-4.1V88.7z
	 M103.2,83.7c-0.5,0-0.8,0.3-0.8,0.8c0,0.4,0.3,0.8,0.7,0.8c0.5,0,0.8-0.4,0.8-0.8C103.9,84,103.6,83.7,103.2,83.7z M102.6,93.1h1.2
	v-6.8h-1.2V93.1z M99,87.6L99,87.6l-0.1-1.3h-1.1c0,0.6,0.1,1.3,0.1,2.1v4.7h1.2v-3.6c0-0.2,0-0.4,0-0.6c0.2-0.9,0.8-1.6,1.6-1.6
	c0.2,0,0.3,0,0.4,0v-1.2c-0.1,0-0.2,0-0.3,0C100.1,86.2,99.4,86.7,99,87.6z M184.9,90.3c-0.2,0.5-0.3,1-0.4,1.4h0
	c-0.1-0.4-0.3-0.9-0.5-1.4l-1.4-4h-1.4l2.5,6.2c0.1,0.2,0.1,0.3,0.1,0.3c0,0.1,0,0.2-0.1,0.3c-0.3,0.6-0.7,1.1-1,1.4
	c-0.4,0.3-0.8,0.5-1.1,0.6l0.3,1c0.3,0,0.9-0.3,1.5-0.8c0.8-0.7,1.4-1.9,2.3-4.2l1.9-4.8h-1.3L184.9,90.3z M164.3,88.9
	c0-1.4-0.5-2.8-2.6-2.8h0c-0.8,0-1.6,0.2-2.2,0.6l0.3,0.8c0.5-0.3,1.1-0.5,1.8-0.5h0.1c1.2,0.1,1.4,1,1.4,1.6v0.1
	c-0.5,0-1,0-1.4,0.1c-1.7,0.3-2.7,1.1-2.7,2.4c0,1,0.7,1.9,2.1,1.9c0.2,0,0.4,0,0.6-0.1c0.7-0.1,1.2-0.5,1.5-0.9h0l0.1,0.8h1.1
	c-0.1-0.5-0.1-1-0.1-1.6V88.9z M163.1,90.8c0,0.1,0,0.3-0.1,0.4c-0.2,0.5-0.6,1-1.4,1.1c-0.1,0-0.2,0-0.3,0c-0.6,0-1.1-0.4-1.1-1.2
	c0-0.8,0.6-1.2,1.4-1.4c0.4-0.1,0.9-0.1,1.4-0.1V90.8z M166.3,93.1h1.2v-6.8h-1.2V93.1z M172.9,86.2c-1.1,0-1.9,0.6-2.2,1.3h0
	l-0.1-1.1h-1.1c0,0.5,0,1.1,0,1.8v4.9h1.2V89c0-0.2,0-0.4,0.1-0.6c0.2-0.7,0.8-1.3,1.6-1.3c1.2,0,1.6,0.9,1.6,2v3.9h1.2v-4
	C175.3,86.7,173.8,86.2,172.9,86.2z M166.9,83.7c-0.5,0-0.8,0.3-0.8,0.8c0,0.4,0.3,0.8,0.7,0.8h0c0.5,0,0.8-0.4,0.8-0.8
	C167.7,84,167.3,83.7,166.9,83.7z M188.6,91.5c-0.5,0-0.8,0.4-0.8,0.9c0,0.5,0.3,0.9,0.8,0.9h0c0.5,0,0.8-0.4,0.8-0.9
	C189.4,91.9,189.1,91.5,188.6,91.5z M145.7,86.2h-0.2c-1.9,0.1-3,1.7-3,3.6c0,1.9,1.1,3.3,3,3.4h0.3c1.1,0,1.8-0.2,2.3-0.4l-0.2-0.9
	c-0.4,0.2-1,0.4-1.9,0.4c-0.2,0-0.3,0-0.5-0.1c-1-0.2-1.8-0.9-1.8-2.3h4.8c0-0.2,0-0.3,0-0.6C148.4,88.1,147.9,86.2,145.7,86.2z
	 M147.2,89h-3.6c0.1-0.8,0.6-1.9,1.8-2c0,0,0.1,0,0.1,0C146.9,87,147.3,88.3,147.2,89z M178.7,84.7l-1.2,0.4v1.3h-1v0.9h1v3.7
	c0,0.8,0.1,1.4,0.5,1.8c0.3,0.3,0.7,0.5,1.3,0.5c0.5,0,0.9-0.1,1.1-0.2l-0.1-0.9c-0.2,0.1-0.4,0.1-0.7,0.1c-0.7,0-0.9-0.5-0.9-1.3
	v-3.6h1.8v-0.9h-1.8V84.7z M151.1,87.6L151.1,87.6l-0.1-1.3h-1.1c0,0.6,0.1,1.3,0.1,2.1v4.7h1.2v-3.6c0-0.2,0-0.4,0.1-0.6
	c0.2-0.9,0.8-1.6,1.6-1.6c0.2,0,0.3,0,0.4,0v-1.2c-0.1,0-0.2,0-0.3,0C152.2,86.2,151.4,86.7,151.1,87.6z M156.4,84.7l-1.2,0.4v1.3
	h-1.1v0.9h1.1v3.7c0,0.8,0.1,1.4,0.5,1.8c0.3,0.3,0.8,0.5,1.3,0.5c0.5,0,0.8-0.1,1.1-0.2l0-0.9c-0.2,0.1-0.4,0.1-0.7,0.1
	c-0.7,0-0.9-0.5-0.9-1.3v-3.6h1.7v-0.9h-1.7V84.7z M13.1,58.5H1v3.6h3.5v9h5v-9h3.6V58.5z M107.3,45.9h5v-9h3.5v-3.6h-12.1v3.6h3.6
	V45.9z M118.4,8.9c3.4-0.5,6.5-0.7,8.3-0.8c0.8-0.2,1.7,0.4,1.6,1.2v0.5l0,17.1h1.7V9.4c-0.1-0.8,0.9-1.4,1.6-1.2
	c1.7,0,4.8,0.3,8.2,0.8c2.3,0.3,4.9,0.8,7.2,1.4c-1.3-2.6-3.9-4.8-7.2-6.3c-3-1.4-6.7-2.2-10.7-2.2c-3.9,0-7.6,0.8-10.6,2.2
	c-1.1,0.5-2.1,1.1-3.1,1.7c-1.8,1.3-3.3,2.8-4.2,4.6c1.4-0.3,2.8-0.6,4.2-0.9C116.3,9.3,117.4,9.1,118.4,8.9z M115.3,23.1
	c0.9,0.7,2,1.2,3.1,1.7c1.4,0.6,3,1.2,4.6,1.5l2.5-12.3c0.1-0.8,0.2-1.5,0.1-2.4c-0.2-0.6-0.7-0.9-1.5-1c-1.9,0.1-3.8,0.2-5.8,0.5
	c-1,0.1-2,0.3-3.1,0.4c-1.7,0.2-3.3,0.5-5,0.8c-0.2,0.7-0.3,1.4-0.3,2.1C110,17.8,112,20.8,115.3,23.1z M22,58.5h-5.3l-4.2,11
	L11.9,71h4.9l2.6-7.5l2.5,7.5h4.9l-0.6-1.6L22,58.5z M41.4,58.5l-4.2,11L36.6,71h4.9l2.5-7.5l2.6,7.5h4.9l-4.8-12.6H41.4z
	 M37.8,58.5H25.7v3.6h3.6v9h5v-9h3.5V58.5z M122.1,38.3l2.6,7.5h4.9l-0.6-1.6l-4.2-11h-5.3l-1.1,2.9l-3.1,8.1l-0.6,1.6h4.9
	L122.1,38.3z M139.7,45l-0.4,0.9h4.9l2.6-7.5l2.5,7.5h4.9l-4.8-12.6h-5.3L139.7,45z M128.9,71V60.4h3.6v-1.9H123v1.9h3.6V71H128.9z
	 M170.9,71h2.3v-5.3l4.2-7.3h-2.6l-1.5,3.2c-0.4,0.9-0.8,1.7-1.1,2.5h0c-0.3-0.9-0.7-1.6-1.1-2.5l-1.5-3.2h-2.6l4,7.3V71z
	 M133.9,10.6c-0.8,0.1-1.3,0.4-1.4,1c-0.1,0.9,0,1.6,0.1,2.4l2.5,12.2c1.6-0.4,3.2-0.9,4.6-1.5c5-2.3,8.3-6.1,8.3-10.4
	c0-0.7-0.1-1.4-0.3-2.1c-2.7-0.5-5.4-0.9-8-1.2C137.8,10.8,135.8,10.7,133.9,10.6z M137,36.9h3.6v-3.6h-12.1v3.6h3.5v9h5V36.9z
	 M64.7,60.1c1,0,1.8,0.2,2.4,0.5l0.5-1.8c-0.5-0.2-1.5-0.5-3-0.5c-3.8,0-6.8,2.5-6.8,6.6c0,3.8,2.4,6.4,6.4,6.4
	c1.5,0,2.7-0.3,3.3-0.6l-0.4-1.8c-0.6,0.3-1.6,0.5-2.5,0.5c-2.8,0-4.4-1.7-4.4-4.5C60.3,61.7,62.1,60.1,64.7,60.1z M124.3,69.1h-5.2
	V58.5h-2.3V71h7.5V69.1z M208.1,65.1L208.1,65.1c1.2-0.5,2.3-1.6,2.3-3.2c0-1.1-0.4-1.9-1.1-2.5c-0.7-0.6-1.9-0.9-3.1-1
	c-0.2,0-0.5,0-0.7,0c-1.5,0-2.6,0.1-3.4,0.3V71h2.3v-5.1h1.1c0.3,0,0.5,0,0.8,0.1c0.8,0.2,1.2,0.8,1.5,2.1c0.4,1.6,0.7,2.6,0.8,2.9
	h2.3c-0.2-0.5-0.6-1.9-1-3.5C209.5,66.3,209,65.4,208.1,65.1z M206.1,64.2c-0.2,0-0.4,0-0.6,0h-1.3v-3.9c0.2-0.1,0.7-0.1,1.4-0.1
	c0.2,0,0.3,0,0.5,0c1.2,0.1,1.9,0.8,1.9,2C208.1,63.2,207.3,64,206.1,64.2z M99.1,63.7c-1.7-0.6-2.4-1.1-2.4-2.1
	c0-0.7,0.6-1.5,2.1-1.5c1.2,0,2.1,0.4,2.5,0.6l0.6-1.9c-0.7-0.3-1.7-0.6-3-0.6c-2.7,0-4.5,1.5-4.5,3.6c0,1.8,1.3,2.9,3.4,3.6
	c1.6,0.6,2.2,1.1,2.2,2.1c0,1-0.8,1.7-2.3,1.7c-1.2,0-2.3-0.4-3-0.8l-0.5,1.9c0.7,0.4,2,0.8,3.4,0.8c3.2,0,4.8-1.8,4.8-3.8
	C102.3,65.6,101.3,64.5,99.1,63.7z M187.1,63.7c-1.7-0.7-2.4-1.1-2.4-2.1c0-0.7,0.6-1.5,2.1-1.5c1.2,0,2,0.3,2.5,0.6l0.5-1.9
	c-0.6-0.3-1.6-0.6-3-0.6c-2.7,0-4.5,1.5-4.5,3.6c0,1.8,1.3,2.9,3.4,3.6c1.6,0.6,2.2,1.1,2.2,2.1c0,1-0.8,1.7-2.3,1.7
	c-1.2,0-2.3-0.4-3-0.8l-0.5,1.9c0.7,0.4,2.1,0.8,3.4,0.8c3.2,0,4.8-1.7,4.8-3.8C190.3,65.6,189.2,64.5,187.1,63.7z M253.8,63.7
	c-1.7-0.7-2.4-1.1-2.4-2.1c0-0.7,0.6-1.5,2.1-1.5c1.2,0,2,0.3,2.5,0.6l0.5-1.9c-0.6-0.3-1.6-0.6-3-0.6c-2.7,0-4.5,1.5-4.5,3.6
	c0,1.8,1.3,2.9,3.4,3.6c1.6,0.6,2.2,1.1,2.2,2.1c0,1-0.8,1.7-2.3,1.7c-1.2,0-2.3-0.4-3-0.8l-0.5,1.9c0.7,0.4,2.1,0.8,3.4,0.8
	c3.2,0,4.8-1.7,4.8-3.8C257,65.6,256,64.5,253.8,63.7z M194.7,65.4h4.7v-1.9h-4.7v-3.2h5v-1.9h-7.3V71h7.6v-1.9h-5.3V65.4z
	 M109.2,71.2c3,0,5.1-1.7,5.1-5.6v-7.2h-2.3v7.3c0,2.5-1,3.6-2.6,3.6c-1.6,0-2.6-1.2-2.6-3.6v-7.3h-2.3v7.2
	C104.4,69.6,106.3,71.2,109.2,71.2z M140.2,71h2.5l-4.1-12.6h-2.9l-3.6,11.3l-0.4,1.3h2.4l1.1-3.6h4L140.2,71z M135.5,65.7l1-3.1
	c0.2-0.8,0.4-1.6,0.6-2.4h0c0,0,0,0,0,0c0.2,0.7,0.4,1.6,0.6,2.3l1,3.1H135.5z M154.5,71V58.5h-2.1v4.4c0,1.9,0,3.5,0.2,5.2h0
	c-0.6-1.4-1.3-2.8-2.1-4.2l-3.2-5.4h-2.6V71h2.1v-4.5c0-2.1,0-3.7-0.1-5.4h0.1c0.6,1.4,1.4,2.9,2.2,4.3l3.3,5.6H154.5z M166.1,70.6
	l-0.4-1.8c-0.6,0.3-1.6,0.5-2.5,0.5c-2.8,0-4.4-1.7-4.4-4.5c0-3,1.8-4.7,4.4-4.7c1,0,1.9,0.2,2.4,0.5l0.5-1.8
	c-0.5-0.2-1.5-0.5-3-0.5c-3.8,0-6.7,2.5-6.7,6.6c0,3.8,2.4,6.4,6.4,6.4C164.4,71.2,165.6,70.9,166.1,70.6z M242.1,65.4h4.8v-1.9
	h-4.8v-3.2h5v-1.9h-7.3V71h7.6v-1.9h-5.3V65.4z M235,60.1c1,0,1.9,0.2,2.4,0.5l0.5-1.8c-0.5-0.2-1.5-0.5-3-0.5
	c-3.8,0-6.7,2.5-6.7,6.6c0,3.8,2.4,6.3,6.4,6.3c1.5,0,2.7-0.3,3.2-0.6l-0.4-1.8c-0.6,0.3-1.6,0.5-2.5,0.5c-2.8,0-4.4-1.8-4.4-4.6
	C230.6,61.7,232.4,60.1,235,60.1z M74.1,71.2L74.1,71.2c0.1,0,0.1,0,0.1,0c3.4,0,5.9-2.4,5.9-6.6c0-3.6-2.2-6.4-5.8-6.4h-0.1
	c-3.5,0-5.9,2.7-5.9,6.6C68.3,68.5,70.5,71.2,74.1,71.2z M74.2,60.1c2.3,0,3.5,2.2,3.5,4.6c0,2.6-1.2,4.7-3.5,4.7
	c-2.2,0-3.5-2.1-3.5-4.6C70.7,62.3,71.9,60.1,74.2,60.1z M218.2,64.2c-0.5,1.5-1,3.1-1.3,4.6h0c-0.3-1.5-0.7-3-1.2-4.6l-1.7-5.7
	h-2.5l4.1,12.6h2.6l4.4-12.6h-2.5L218.2,64.2z M92.1,58.5h-2.1v4.4c0,1.9,0,3.5,0.2,5.2h0c-0.6-1.4-1.3-2.8-2.1-4.2l-3.3-5.4h-2.6
	V71h2.1v-4.5c0-2.1,0-3.7-0.1-5.4h0.1c0.6,1.4,1.4,2.9,2.2,4.3l3.3,5.6h2.4V58.5z M223.9,71h2.3V58.4h-2.3V71z"/>
</svg>
