<svg id="Capa_1" enable-background="new 0 0 512 512" height="512" viewBox="0 0 512 512" width="512" xmlns="http://www.w3.org/2000/svg"><g><path d="m471 385.284v-49.284c0-12.971-6.335-25.477-17.379-34.313-.249-.199-.508-.386-.76-.58 6.34-8.011 10.139-18.121 10.139-29.107 0-20.671-13.42-38.256-32-44.531v-182.469c0-24.813-20.187-45-45-45h-260c-24.813 0-45 20.187-45 45v182.469c-18.58 6.275-32 23.86-32 44.531 0 10.998 3.808 21.118 10.16 29.134-11.144 8.607-18.16 21.049-18.16 34.866v49.284c-22.468 2.496-40 21.593-40 44.716v37c0 24.813 20.187 45 45 45h420c24.813 0 45-20.187 45-45v-37c0-23.123-17.532-42.22-40-44.716zm-160-.284v-49c0-12.971-6.335-25.477-17.379-34.313-.249-.199-.508-.386-.76-.58 3.313-4.187 5.927-8.946 7.67-14.107h70.938c1.747 5.172 4.368 9.94 7.691 14.134-11.144 8.607-18.16 21.049-18.16 34.866v49zm-160 0v-49c0-12.971-6.335-25.477-17.379-34.313-.249-.199-.508-.386-.76-.58 3.313-4.187 5.927-8.946 7.67-14.107h70.938c1.747 5.172 4.368 9.94 7.691 14.134-11.144 8.607-18.16 21.049-18.16 34.866v49zm-80-49c0-9.056 11.683-17 25-17 7.143 0 14.023 2.229 18.88 6.113 2.285 1.829 6.12 5.675 6.12 10.887v49h-50zm185-47c-9.374 0-17-7.626-17-17s7.626-17 17-17 17 7.626 17 17-7.626 17-17 17zm-25 47c0-9.056 11.683-17 25-17 7.143 0 14.023 2.229 18.88 6.113 2.285 1.829 6.12 5.675 6.12 10.887v49h-50zm160 0c0-9.056 11.683-17 25-17 7.143 0 14.023 2.229 18.88 6.113 2.285 1.829 6.12 5.675 6.12 10.887v49h-50zm25-47c-9.374 0-17-7.626-17-17s7.626-17 17-17 17 7.626 17 17-7.626 17-17 17zm-290-259h260c8.271 0 15 6.729 15 15v182.469c-13.866 4.684-24.848 15.665-29.531 29.531h-70.938c-6.276-18.58-23.86-32-44.531-32s-38.255 13.42-44.531 32h-70.938c-4.684-13.866-15.665-24.848-29.531-29.531v-182.469c0-8.271 6.729-15 15-15zm-47 242c0-9.374 7.626-17 17-17s17 7.626 17 17-7.626 17-17 17-17-7.626-17-17zm402 195c0 8.271-6.729 15-15 15h-420c-8.271 0-15-6.729-15-15v-37c0-8.271 6.729-15 15-15h420c8.271 0 15 6.729 15 15z"/><path d="m226.7 193.894c3.636 1.919 7.597 2.869 11.545 2.868 4.881 0 9.742-1.451 13.938-4.318l56.046-38.294c6.723-4.594 10.749-12.197 10.771-20.339.022-8.141-3.961-15.766-10.656-20.396l.001.001-56.046-38.77c-7.583-5.244-17.367-5.845-25.536-1.563-8.167 4.282-13.24 12.67-13.24 21.891v77.062c-.001 9.192 5.049 17.567 13.177 21.858zm16.822-88.84 41.435 28.662-41.435 28.312z"/></g></svg>